<?xml version="1.0" standalone="no"?>
<!DOCTYPE svg PUBLIC "-//W3C//DTD SVG 20010904//EN"
 "http://www.w3.org/TR/2001/REC-SVG-20010904/DTD/svg10.dtd">
<svg version="1.0" xmlns="http://www.w3.org/2000/svg"
 width="263.000000pt" height="262.000000pt" viewBox="0 0 263.000000 262.000000"
 preserveAspectRatio="xMidYMid meet">
<metadata>
Created by potrace 1.14, written by Peter Selinger 2001-2017
</metadata>
<g transform="translate(0.000000,262.000000) scale(0.100000,-0.100000)"
fill="#000000" stroke="none">
<path d="M2063 2196 c-167 -115 -207 -154 -297 -291 -66 -100 -79 -114 -132
-142 -82 -43 -218 -89 -316 -107 -46 -9 -166 -23 -266 -31 -101 -9 -207 -20
-234 -25 -101 -20 -121 -15 -182 41 -45 41 -61 50 -80 45 -43 -11 -41 -40 3
-108 46 -67 46 -60 1 -179 -16 -41 -43 -134 -60 -205 -44 -186 -70 -234 -189
-344 l-98 -91 -6 -197 c-6 -191 -6 -197 14 -214 26 -22 117 -24 144 -4 17 12
18 17 7 40 -7 15 -26 35 -42 44 -40 23 -44 39 -25 113 35 136 81 195 221 289
43 30 115 88 159 130 93 89 151 130 241 172 59 27 73 30 127 25 34 -4 109 -20
167 -37 144 -42 226 -59 325 -66 l84 -7 7 -44 c9 -63 -1 -315 -17 -400 -13
-70 -12 -72 10 -90 16 -13 24 -35 31 -82 12 -87 23 -96 115 -96 90 0 108 12
79 52 -11 16 -37 36 -57 46 -29 14 -38 26 -43 54 -10 56 3 213 31 373 33 188
49 239 91 301 54 78 65 120 74 275 13 212 64 404 108 404 11 0 63 -22 116 -50
53 -27 109 -50 124 -50 44 0 98 19 117 40 19 21 18 22 -57 93 -55 51 -84 88
-101 127 -13 30 -38 68 -56 84 -37 36 -38 45 -6 124 28 70 30 82 13 81 -7 -1
-72 -42 -145 -93z"/>
</g>
</svg>
